<svg height="512pt" viewBox="0 0 512.00045 512" width="512pt" xmlns="http://www.w3.org/2000/svg"><path d="m337.660156 24.453125c15.925782 11.589844 17.902344 31.933594 18.125 38.285156.042969 1.234375-.542968 2.390625-1.5625 3.085938-5.253906 3.574219-22.828125 14.011719-41.59375 8.023437-18.375-5.859375-31.652344-35.609375-35.855468-46.183594-.800782-2.015624.339843-4.265624 2.4375-4.8125 11.011718-2.863281 42.851562-9.75 58.449218 1.601563zm0 0" fill="#00cdb3"/><path d="m355.785156 62.738281c-.222656-6.351562-2.199218-26.695312-18.125-38.285156-15.597656-11.351563-47.4375-4.464844-58.453125-1.597656-1.046875.273437-1.855469.96875-2.304687 1.851562l78.5 39.777344c.269531-.53125.40625-1.128906.382812-1.746094zm0 0" fill="#00edd0"/><path d="m390.878906 38.773438c-15.925781 11.589843-17.90625 31.933593-18.125 38.285156-.042968 1.234375.542969 2.390625 1.5625 3.085937 5.25 3.578125 22.824219 14.011719 41.589844 8.027344 18.378906-5.863281 31.65625-35.613281 35.859375-46.1875.800781-2.015625-.339844-4.265625-2.4375-4.808594-11.015625-2.867187-42.851563-9.753906-58.449219 1.597657zm0 0" fill="#00cdb3"/><path d="m372.753906 77.058594c.21875-6.351563 2.199219-26.691406 18.125-38.285156 15.597656-11.351563 47.433594-4.464844 58.449219-1.597657 1.050781.273438 1.859375.96875 2.304687 1.855469l-78.496093 39.773438c-.269531-.53125-.40625-1.128907-.382813-1.746094zm0 0" fill="#00edd0"/><path d="m85.644531 148.410156c19.265625 4.101563 29.355469 21.878906 32.144531 27.585938.539063 1.113281.476563 2.40625-.171874 3.457031-3.339844 5.40625-15.144532 22.09375-34.722657 24.265625-19.171875 2.125-43.40625-19.636719-51.554687-27.585938-1.550782-1.515624-1.425782-4.03125.269531-5.382812 8.894531-7.105469 35.167969-26.359375 54.035156-22.339844zm0 0" fill="#00cdb3"/><path d="m117.789062 175.996094c-2.785156-5.710938-12.878906-23.484375-32.144531-27.585938-18.867187-4.019531-45.140625 15.234375-54.035156 22.335938-.847656.675781-1.300781 1.644531-1.351563 2.632812l87.890626 4.367188c.03125-.59375-.089844-1.195313-.359376-1.75zm0 0" fill="#00edd0"/><path d="m140.085938 139.820312c-9.828126 17.070313-3.351563 36.457032-.96875 42.347657.464843 1.144531 1.46875 1.964843 2.6875 2.183593 6.25 1.128907 26.550781 3.503907 41.253906-9.601562 14.398437-12.839844 14.414062-45.414062 13.945312-56.785156-.089844-2.167969-2.046875-3.757813-4.183594-3.402344-11.226562 1.867188-43.113281 8.539062-52.734374 25.257812zm0 0" fill="#00cdb3"/><path d="m139.117188 182.167969c-2.382813-5.890625-8.859376-25.277344.96875-42.347657 9.625-16.71875 41.507812-23.390624 52.734374-25.257812 1.070313-.175781 2.09375.132812 2.859376.753906l-55.5 68.289063c-.464844-.375-.832032-.863281-1.0625-1.4375zm0 0" fill="#00edd0"/><path d="m357.804688 106.660156c-8.203126-1.160156-13.910157-8.753906-12.746094-16.957031l9.824218-69.304687c1.164063-8.203126 8.753907-13.910157 16.957032-12.746094 8.203125 1.160156 13.910156 8.753906 12.746094 16.957031l-9.824219 69.304687c-1.164063 8.203126-8.753907 13.910157-16.957031 12.746094zm0 0" fill="#b0693c"/><path d="m363.214844 69.792969c-90.226563-12.785157-174.046875 52.210937-187.21875 145.167969-13.171875 92.957031 49.289062 178.679687 139.515625 191.464843 90.222656 12.785157 174.042969-52.207031 187.21875-145.164062 13.171875-92.960938-49.292969-178.683594-139.515625-191.46875zm0 0" fill="#ffb300"/><path d="m363.238281 69.800781c-12.757812-1.808593-25.390625-2.058593-37.710937-.894531 2.566406.238281 5.132812.53125 7.710937.894531 90.222657 12.789063 152.683594 98.515625 139.507813 191.476563-11.316406 79.8125-74.710938 139.007812-149.519532 146.058594 87.246094 8.148437 166.71875-55.753907 179.519532-146.058594 13.175781-92.960938-49.285156-178.683594-139.507813-191.476563zm0 0" fill="#ffa000"/><path d="m136.222656 207.261719c-7.964844 2.277343-16.269531-2.332031-18.546875-10.296875l-19.25-67.300782c-2.277343-7.964843 2.332031-16.269531 10.296875-18.546874 7.964844-2.28125 16.269532 2.332031 18.546875 10.296874l19.25 67.300782c2.28125 7.964844-2.332031 16.265625-10.296875 18.546875zm0 0" fill="#b0693c"/><path d="m331.550781 289.441406c-25.820312-90.265625-117.773437-143.125-205.382812-118.0625-87.609375 25.058594-137.699219 118.546875-111.878907 208.8125 25.816407 90.265625 117.769532 143.121094 205.378907 118.0625s137.699219-118.546875 111.882812-208.8125zm0 0" fill="#ffb300"/><path d="m331.566406 289.457031c-22.960937-80.265625-98.207031-130.949219-176.195312-123.582031 66.570312 6.238281 126.203125 53.691406 146.195312 123.582031 25.820313 90.265625-24.277344 183.757813-111.890625 208.820313-9.707031 2.777344-19.472656 4.59375-29.195312 5.511718 19.414062 1.820313 39.414062.144532 59.195312-5.511718 87.613281-25.0625 137.707031-118.554688 111.890625-208.820313zm0 0" fill="#ffa000"/><path d="m431.605469 87.417969c8.117187-7 18.003906-19.679688 27.117187-42.632813 2.519532-6.253906-1.082031-13.210937-7.496094-14.863281-15.25-3.972656-42.046874-8.835937-59.777343-.1875.347656-2.464844.566406-3.992187.578125-4.078125 1.730468-12.289062-6.847656-23.695312-19.125-25.433594-12.28125-1.734375-23.683594 6.839844-25.433594 19.113282-.003906.027343-.171875 1.210937-.453125 3.195312-1.542969-1.496094-3.1875-2.878906-4.929687-4.144531-17.28125-12.578125-47.980469-7.152344-64.761719-2.792969-6.445313 1.691406-9.972657 8.640625-7.503907 14.84375 7.335938 18.417969 15.171876 30.109375 21.886719 37.496094-11.992187 3.65625-23.660156 8.683594-34.851562 15.046875-20.132813 11.453125-37.953125 27.054687-52.25 45.484375.105469-4.382813.023437-8.136719-.089844-10.8125-.277344-6.632813-6.277344-11.570313-12.90625-10.488282-31.660156 5.273438-46.753906 15.425782-53.90625 23.359376l-3.199219-11.179688c-3.410156-11.878906-15.882812-18.804688-27.8125-15.433594-11.949218 3.410156-18.867187 15.859375-15.441406 27.820313l.074219.261719c.003906.011718.007812.019531.007812.03125l3.222657 11.265624c-2.371094-.9375-4.808594-1.671874-7.3125-2.207031-6.410157-1.367187-13.796876-.75-21.957032 1.835938-3.945312 1.253906-6.132812 5.46875-4.882812 9.414062 1.253906 3.949219 5.46875 6.140625 9.417968 4.886719 5.648438-1.792969 10.457032-2.28125 14.296876-1.46875 6.042968 1.289062 11.640624 4.402344 16.65625 9.261719l1.960937 6.867187c-12.757813 5.578125-24.683594 12.675782-35.578125 21.128906-10.648438-4.78125-21.085938-13.460937-27.273438-19.144531 1.128907-.847656 2.40625-1.78125 3.792969-2.757812 3.386719-2.386719 4.195313-7.066407 1.8125-10.453125-2.386719-3.386719-7.0625-4.195313-10.453125-1.8125-3.46875 2.445312-6.304687 4.644531-8.070312 6.054687-5.207032 4.160157-5.609375 11.953125-.828125 16.609375 6.042969 5.898438 16.675781 15.378906 28.6875 22.070313-13.332031 12.585937-24.71875 27.457031-33.707031 44.234375-22.054688 41.171875-27.027344 88.929687-14.003907 134.476562 22.394531 78.296875 92.808594 129.71875 168.503907 129.714844 15.285156 0 30.785156-2.097656 46.144531-6.492188 48.269531-13.808593 85.6875-47.589843 106.304687-90.253906 3.335938.199219 6.675782.300782 10.015625.300782 24.300781 0 48.496094-5.289063 70.765625-15.554688 26.195313-12.078125 49.324219-30.804688 66.886719-54.15625 2.492187-3.308594 1.828125-8.011719-1.484375-10.5-3.308594-2.492188-8.011719-1.828125-10.5 1.484375-16.078125 21.371094-37.234375 38.507813-61.183594 49.546875-21.425781 9.878906-44.800781 14.703125-68.183594 14.132812 13.097657-34.804687 15.511719-74.269531 4.40625-113.101562-8.113281-28.367188-23.046874-54.484375-43.191406-75.527344-2.863281-2.992187-7.609375-3.097656-10.601562-.234375-2.992188 2.867188-3.097656 7.613281-.230469 10.605469 18.464844 19.292969 32.160156 43.25 39.601563 69.28125 24.640624 86.152344-23.238282 175.671875-106.730469 199.558594-13.992188 4-28.101563 5.910156-42.027344 5.910156-69.164063-.007812-133.566406-47.125-154.074219-118.839844-11.949218-41.773437-7.398437-85.550781 12.804688-123.265625 44.875-83.757812 150.488281-107.519531 227.371094-52.613281 3.371093 2.40625 8.054687 1.628906 10.460937-1.742188 2.40625-3.371093 1.628906-8.058593-1.742187-10.464843-21.035157-15.019531-44.527344-24.957031-68.875-29.519531 14.464843-26.902344 36.441406-49.585938 62.714843-64.53125 112.617188-64.054688 249.921875 31.074218 231.058594 164.214843-2.511719 17.722657-7.75 34.742188-15.574219 50.585938-1.832031 3.710937-.308594 8.210937 3.402344 10.042969 3.730469 1.84375 8.21875.296874 10.046875-3.402344 8.53125-17.273438 14.242187-35.820313 16.976563-55.121094 10.125-71.472656-22.8125-139.03125-78.574219-174.925781zm-314.816407 79.046875c-8.253906-28.851563-10.476562-36.613282-10.984374-38.390625l-.046876-.175781c-.003906-.007813-.007812-.019532-.011718-.03125-.03125-.117188-.054688-.1875-.0625-.226563l-.011719-.042969c-1.144531-3.996094 1.183594-8.132812 5.117187-9.253906 3.988282-1.132812 8.164063 1.175781 9.300782 5.132812 5.320312 18.609376 7.871094 27.511719 11.113281 38.847657-4.777344 1.144531-9.589844 2.523437-14.414063 4.140625zm29.195313-7-2.425781-8.480469c.707031-2.621094 1.730468-5.109375 3.058594-7.417969 5.929687-10.304687 25.363281-17.324218 43.023437-20.800781.085937 8.550781-.472656 23.917969-4.8125 35.507813-12.886719-1.101563-25.910156-.71875-38.84375 1.191406zm249.320313-114.628906c9.617187-6.996094 30.203124-5.496094 47.769531-1.46875-6.273438 14.535156-15.636719 30.042968-25.585938 35.902343-9.882812-5.085937-20.355469-9.226562-31.316406-12.300781.570313-4.03125 1.339844-9.46875 2.136719-15.070312 2.011718-2.78125 4.359375-5.152344 6.996094-7.0625zm-109.816407-15.796876c17.5625-4.015624 38.167969-5.515624 47.777344 1.480469 4.542969 3.296875 8.136719 7.847657 10.703125 13.53125-.871094 6.144531-1.734375 12.226563-2.359375 16.632813-10.960937-.082032-21.84375.910156-32.535156 2.953125-10.859375-7.796875-19.507813-25.214844-23.585938-34.597657zm71.160157 32.425782c.675781-4.769532 1.574218-11.097656 2.453124-17.308594.003907-.042969.011719-.085938.015626-.128906 1.621093-11.414063 3.175781-22.398438 3.199218-22.570313.585938-4.097656 4.386719-6.957031 8.484375-6.378906 4.09375.578125 6.953125 4.386719 6.378907 8.464844-.019532.117187-1.738282 12.246093-3.445313 24.273437-.027344.164063-.050781.328125-.070313.496094-.78125 5.53125-1.558593 11.003906-2.160156 15.242188-4.769531-.886719-9.710937-1.59375-14.855468-2.089844zm0 0"/></svg>